<?xml version="1.0" standalone="no"?>
<!DOCTYPE svg PUBLIC "-//W3C//DTD SVG 20010904//EN"
 "http://www.w3.org/TR/2001/REC-SVG-20010904/DTD/svg10.dtd">
<svg version="1.0" xmlns="http://www.w3.org/2000/svg"
 width="640.000000pt" height="640.000000pt" viewBox="0 0 640.000000 640.000000"
 preserveAspectRatio="xMidYMid meet">
<metadata>
Created by potrace 1.16, written by Peter Selinger 2001-2019
</metadata>
<g transform="translate(0.000000,640.000000) scale(0.100000,-0.100000)"
fill="#000000" stroke="none">
<path d="M2980 5554 c-496 -60 -886 -217 -1248 -503 -397 -313 -694 -768 -818
-1251 -47 -185 -66 -324 -71 -541 -6 -228 9 -387 53 -582 200 -879 890 -1576
1760 -1776 306 -71 682 -80 974 -25 862 165 1543 761 1815 1589 49 148 77 275
101 455 20 153 14 490 -11 645 -144 896 -779 1629 -1640 1894 -229 70 -380 92
-655 96 -124 2 -241 1 -260 -1z m-1060 -2354 l0 -130 -120 0 c-115 0 -122 1
-145 25 -23 22 -25 32 -25 109 0 79 2 86 26 105 24 19 40 21 145 21 l119 0 0
-130z m1890 0 l0 -130 -610 0 -610 0 0 130 0 130 610 0 610 0 0 -130z m935
105 c22 -22 25 -32 25 -105 0 -73 -3 -83 -25 -105 -23 -24 -30 -25 -145 -25
l-120 0 0 130 0 130 120 0 c115 0 122 -1 145 -25z"/>
</g>
</svg>
